<mxfile host="app.diagrams.net" modified="2024-08-29T02:06:38.734Z" agent="Mozilla/5.0 (Windows NT 10.0; Win64; x64) AppleWebKit/537.36 (KHTML, like Gecko) Chrome/117.0.0.0 Safari/537.36" version="24.4.10" etag="8ul18G4jJzSZxKt0Vewv" type="github">
  <diagram name="Page-1" id="gh6gTTbFPHKAGx2TyVZt">
    <mxGraphModel>
      <root>
        <mxCell id="0" />
        <mxCell id="1" parent="0" />
      </root>
    </mxGraphModel>
  </diagram>
</mxfile>
